#define noname_width 64
#define noname_height 64
static char noname_bits[] = {
 0x00,0x00,0x00,0x00,0x00,0x00,0x00,0x00,0x00,0x00,0x00,0x00,0x00,0x00,0x00,
 0x00,0x00,0x00,0x00,0x00,0x00,0x00,0x00,0x00,0x00,0x00,0x80,0xe7,0xe3,0x1c,
 0x00,0x00,0x00,0x00,0xbc,0xff,0xff,0x1f,0x00,0x00,0x00,0x00,0xfc,0xff,0xff,
 0xff,0x03,0x00,0x00,0x00,0xbc,0x61,0x30,0xf8,0x03,0x00,0x00,0x00,0xb4,0x61,
 0x30,0x18,0x02,0x00,0x00,0x00,0xb4,0x61,0x30,0x18,0x02,0x00,0x00,0x00,0xb4,
 0x61,0x30,0x18,0x02,0x00,0x00,0x00,0xb4,0x61,0x30,0x18,0x02,0x00,0x00,0x00,
 0xb4,0x61,0x30,0x18,0x02,0x00,0x00,0x00,0xb4,0x61,0x30,0x18,0x02,0x00,0x00,
 0x00,0xb4,0x61,0x30,0x18,0x02,0x00,0x00,0x00,0xb4,0x61,0x30,0x18,0x02,0x00,
 0x00,0x00,0xb4,0x61,0x30,0x18,0x02,0x00,0x00,0x00,0xb4,0x61,0x30,0x18,0x02,
 0x00,0x00,0x00,0xb4,0x61,0x30,0x18,0x02,0x00,0x00,0x00,0xb4,0x61,0x30,0x18,
 0x02,0x00,0x00,0x00,0xb4,0x61,0x30,0x18,0x02,0x00,0x00,0x00,0xb4,0x61,0x30,
 0x18,0x02,0x00,0x00,0x00,0xb4,0x61,0x30,0x18,0x02,0x00,0x00,0x00,0xb4,0x61,
 0x30,0x18,0x02,0x00,0x00,0x00,0xb4,0x61,0x30,0x18,0x02,0x00,0x00,0x00,0xb4,
 0x61,0x30,0x18,0x02,0x00,0x00,0x00,0xb4,0x61,0x30,0x18,0x02,0x00,0x00,0x00,
 0xb4,0x61,0x30,0x18,0x02,0x00,0x00,0x00,0xb4,0x61,0x30,0x18,0x02,0x00,0x00,
 0x00,0xb4,0x61,0x30,0x18,0x02,0x00,0x00,0x00,0xb4,0x61,0x30,0x18,0x02,0x00,
 0x00,0x00,0xb4,0x61,0x30,0x18,0x02,0x00,0x00,0x00,0xb4,0x61,0x30,0x18,0x02,
 0x00,0x00,0xe0,0xb7,0x61,0x30,0x18,0x02,0x00,0x00,0xfc,0xb7,0x61,0x30,0x18,
 0x0e,0x00,0x80,0xff,0xb7,0x61,0x30,0x18,0x7e,0x00,0xe0,0xff,0xb7,0x61,0x30,
 0x18,0xfe,0x03,0xf0,0xff,0xbf,0x61,0x30,0xf8,0xff,0x0f,0xf8,0xff,0xbf,0x61,
 0x30,0xf8,0xff,0x3f,0xfc,0xff,0xff,0x63,0x30,0x18,0x00,0x20,0xfc,0xff,0xff,
 0xff,0x30,0x1e,0x00,0x20,0xfc,0xff,0xff,0xff,0xff,0x3f,0x00,0x20,0xf4,0xff,
 0xff,0xff,0xff,0x7f,0x00,0x20,0xe4,0xff,0xff,0xff,0xff,0xff,0x00,0x20,0x44,
 0xff,0xff,0xff,0xff,0xff,0x01,0x20,0x44,0xfc,0xff,0xff,0xff,0xff,0x03,0x20,
 0x44,0xf8,0xff,0xff,0xff,0xff,0x07,0x20,0x44,0x10,0xff,0xff,0xff,0xff,0x0f,
 0x20,0x44,0x10,0xe0,0xff,0xff,0x07,0x08,0x20,0x44,0x10,0x20,0x00,0x02,0x00,
 0x08,0x20,0x44,0x10,0x20,0x00,0x02,0x00,0xf8,0x3f,0x44,0x10,0x20,0x00,0x02,
 0x00,0xf8,0x3f,0x4c,0x10,0x20,0x00,0x02,0x00,0x08,0x00,0x58,0x10,0x20,0x00,
 0x02,0x00,0x08,0x00,0x70,0x10,0x20,0x00,0x02,0x00,0x08,0x00,0xe0,0x10,0x20,
 0x00,0x02,0x00,0x08,0x00,0xc0,0x13,0x20,0x00,0x02,0x00,0x08,0x00,0x80,0x1f,
 0x20,0x00,0x02,0x00,0x08,0x00,0x00,0xfe,0x21,0x00,0x02,0x00,0x08,0x00,0x00,
 0xf0,0xff,0x00,0x02,0xe0,0x0f,0x00,0x00,0x00,0xff,0xff,0xff,0xff,0x0f,0x00,
 0x00,0x00,0x80,0xff,0xff,0xff,0x00,0x00,0x00,0x00,0x00,0x00,0x00,0x00,0x00,
 0x00,0x00,0x00,0x00,0x00,0x00,0x00,0x00,0x00,0x00,0x00,0x00,0x00,0x00,0x00,
 0x00,0x00};
